<svg xmlns="http://www.w3.org/2000/svg" viewBox="0 0 300 150">
  <style>
    #truck {
      transition: transform 4s ease-in-out;
    }
  </style>
  <rect width="100%" height="100%" fill="purple"/>
  <rect x="50%" width="50%" height="100%" fill="yellow"/>
  <rect x="45%" width="10%" height="100%" fill="blue"/>
  <circle r="50" cx="150" cy="75" fill="orange"/>
  <path d="M110,40 180,30 140,10 Z" fill="black"/>
  <circle r="20" cx="30" cy="75" fill="brown"/>
  <text x="12" y="77" style="font-size:7" fill="white">1234567890</text>
  <circle r="20" cx="270" cy="75" fill="black"/>
  <circle r="15" cx="270" cy="75" fill="yellow"/>
  <circle r="10" cx="270" cy="75" fill="purple"/>
  <circle r="5" cx="270" cy="75" fill="pink"/>
  <text x="120" y="70">EDISON</text>
  <text x="110" y="90" style="font-size:10">BLA BLA BLU</text>
  <rect x="200" y="20" width="30" height="30" fill="#000090"/>
  <path d="M0,0 10,0 0,10 Z" fill="red"/>
  <path d="M50,80 100,70" stroke="pink" stroke-width="4"/>
  <rect x="98%" width="2%" height="4%" fill="orange" stroke="green" stroke-width="1"/>
  <g id="car">
    <circle r="8" cx="212" cy="130" fill="black" stroke="gray" stroke-width="2"/>
    <circle r="8" cx="258" cy="130" fill="black" stroke="gray" stroke-width="2"/>
    <rect x="200" y="100" width="70" height="30" fill="red"/>
    <rect x="202" y="102" width="66" height="26" fill="#8080f0"/>
  </g>
  <g id="truck">
    <circle r="8" cx="25" cy="130" fill="black" stroke="gray" stroke-width="1"/>
    <circle r="8" cx="58" cy="130" fill="black" stroke="gray" stroke-width="1"/>
    <circle r="8" cx="84" cy="130" fill="black" stroke="gray" stroke-width="1"/>
    <circle r="8" cx="103" cy="130" fill="black" stroke="gray" stroke-width="1"/>
    <rect x="10" y="100" width="30" height="30" fill="blue"/>
    <rect x="45" y="100" width="70" height="30" fill="blue"/>
    <path d="M115,130 130,130 115,100" stroke="gray" stroke-width="2"/>
   </g>
   <script>
     document.addEventListener('click', function(event) {
       if ('y' in event.target) {
         event.target.y.baseVal.value -= 10;
       } else if ('cy' in event.target) {
         event.target.cy.baseVal.value -= 10;
       }
     });
     var truck = document.getElementById('truck');
     var distance = 0;
     truck.addEventListener('click', function(event) {
       distance += 100;
       truck.style.transform = 'translate(' + distance + 'px, 0)';
       event.stopPropagation();
     });
   </script>
</svg>
